PathFileType	4	(x/y/z)	S04_M20_T34.trc
DataRate	CameraRate	NumFrames	NumMarkers	Units	OrigDataRate	OrigDataStartFrame	OrigNumFrames
240	240	4	51	mm	240	134	535
Frame#	Time	Sternum			R.Acromium			L.Acromium			Top.Head			R.ASIS			L.ASIS			R.PSIS			L.PSIS			R.Great.Tro			L.Great.Tro			R.Iliac.Crest			L.Iliac.Crest			V.Sacral			R.Thigh.Upper.Post			R.Thigh.Lower.Ant			R.Thigh.Lower.Post			R.Thigh.Upper.Ant			R.Knee.Lat			R.Knee.Med			R.Shank.Upper.Post			R.Shank.Lower.Ant			R.Shank.Lower.Post			R.Shank.Upper.Ant			R.Ankle.Lat			R.Ankle.Med			R.Heel.Upper			R.Heel.Med			R.Heel.Lat			R.Toe.Lat			R.Toe.Med			R.Toe.Tip			L.Thigh.Upper.Post			L.Thigh.Lower.Ant			L.Thigh.Lower.Post			L.Thigh.Upper.Ant			L.Knee.Lat			L.Knee.Med			L.Shank.Upper.Post			L.Shank.Lower.Ant			L.Shank.Lower.Post			L.Shank.Upper.Ant			L.Ankle.Lat			L.Ankle.Med			L.Heel.Upper			L.Heel.Med			L.Heel.Lat			L.Toe.Lat			L.Toe.Med			L.Toe.Tip			Cervical.Spine			Back			
		X1	Y1	Z1	X2	Y2	Z2	X3	Y3	Z3	X4	Y4	Z4	X5	Y5	Z5	X6	Y6	Z6	X7	Y7	Z7	X8	Y8	Z8	X9	Y9	Z9	X10	Y10	Z10	X11	Y11	Z11	X12	Y12	Z12	X13	Y13	Z13	X14	Y14	Z14	X15	Y15	Z15	X16	Y16	Z16	X17	Y17	Z17	X18	Y18	Z18	X19	Y19	Z19	X20	Y20	Z20	X21	Y21	Z21	X22	Y22	Z22	X23	Y23	Z23	X24	Y24	Z24	X25	Y25	Z25	X26	Y26	Z26	X27	Y27	Z27	X28	Y28	Z28	X29	Y29	Z29	X30	Y30	Z30	X31	Y31	Z31	X32	Y32	Z32	X33	Y33	Z33	X34	Y34	Z34	X35	Y35	Z35	X36	Y36	Z36	X37	Y37	Z37	X38	Y38	Z38	X39	Y39	Z39	X40	Y40	Z40	X41	Y41	Z41	X42	Y42	Z42	X43	Y43	Z43	X44	Y44	Z44	X45	Y45	Z45	X46	Y46	Z46	X47	Y47	Z47	X48	Y48	Z48	X49	Y49	Z49	X50	Y50	Z50	X51	Y51	Z51	

134	0.55417	-113.77	1270.9	270.37	-226.42	1502.2	450.38	-257.53	1483	101.82	-213.43	1825.4	266.22	-119.09	992.18	402.41	-152.57	1004.1	151.33	-344.41	1028.7	334.25	-346.51	1035.9	254.54	-191.34	916.88	480.51	-285.57	927.27	107.82	-202.46	1082.3	458.98	-255.37	1086.1	119.39	-366.99	990.71	295.54	-81.236	678.34	469.47	19.732	640.54	425.1	-40.873	598.54	450.07	-21.605	741.01	448.74	2.6179	546.91	438.08	-22.276	537.3	302.84	-74.652	324.75	435.23	-7.8849	244.47	397.73	-76.021	254.72	421.26	-9.6027	314.7	419.92	-65.724	135.93	405.91	-39.83	151.1	317.25	-126.19	102.03	344.91	-114.42	73.185	314.51	-122.74	69.042	378.42	45.231	65.33	435.04	85.611	73.244	321.28	144.44	94.515	371.76	-330.68	698.7	132.48	-264.12	591.56	135.93	-333.81	610.09	145.43	-265.92	680.57	117.92	-311.73	509.63	151.93	-302.43	500.36	278.04	-427.3	344.42	165.39	-371.72	248.51	169.68	-433.26	267.4	176.19	-365.85	324.35	158.59	-414.59	105.16	195.71	-413.03	115.32	289.5	-496.84	76.486	243.25	-490.45	49.447	275.43	-493.42	49.864	214.25	-310.21	40.622	172.25	-277.69	42.193	288.72	-220.69	50.034	238.41	-289.67	1546.5	284.22	-373.94	1289	272.79
135	0.55833	-108.88	1270	270.33	-221.04	1501.4	450.63	-252.77	1482.3	102.11	-208.29	1824.6	266.48	-113.76	991.5	402.1	-148.2	1003.3	151.13	-339.37	1027.9	334.74	-341.75	1035.2	255.04	-185.76	916.26	480.58	-281.54	926.81	108.11	-197.06	1081.5	459.04	-250.93	1085.5	119.58	-362.05	989.98	296.1	-75.69	677.8	469.55	25.299	640.2	425.06	-35.19	598.08	450.12	-16.212	740.59	448.75	8.8008	546.76	438.14	-16.317	536.75	302.96	-64.024	323.07	435.69	4.3286	244.25	398.04	-63.928	253.03	421.73	1.1407	314.44	420.2	-50.965	134.45	406.4	-25.737	150.2	317.67	-111.01	99.182	345.64	-98.626	70.587	315.27	-106.61	66.306	379.16	61.566	66.364	435.22	101.35	75.105	321.29	159.85	97.692	371.55	-328.03	698.78	132.79	-262.07	591.27	136.06	-331.64	610.17	145.65	-263.4	680.3	118.12	-310.19	509.56	152.01	-300.67	500.18	278.11	-426.39	344.78	165.65	-371.18	248.65	169.79	-432.6	267.8	176.4	-365.04	324.48	158.71	-414.42	105.36	195.93	-412.76	115.48	289.69	-496.72	76.727	243.53	-490.34	49.622	275.65	-493.35	50.162	214.48	-310.2	40.633	172.31	-277.61	42.087	288.76	-220.6	49.858	238.42	-284.55	1545.8	284.57	-369.08	1288.4	273.27
136	0.5625	-103.97	1269.2	270.29	-215.65	1500.5	450.88	-248	1481.5	102.4	-203.12	1823.8	266.75	-108.43	990.78	401.79	-143.82	1002.5	150.93	-334.3	1027.2	335.25	-336.96	1034.5	255.55	-180.17	915.61	480.64	-277.48	926.34	108.4	-191.65	1080.7	459.11	-246.49	1084.8	119.79	-357.1	989.24	296.68	-70.195	677.21	469.64	30.808	639.79	425.05	-29.574	597.55	450.18	-10.857	740.1	448.77	14.906	546.54	438.2	-10.436	536.13	303.1	-53.441	321.41	436.16	16.469	244.1	398.36	-51.875	251.41	422.21	11.811	314.23	420.49	-36.243	133.09	406.9	-11.696	149.41	318.11	-95.833	96.461	346.38	-82.847	68.128	316.04	-90.477	63.72	379.9	77.803	67.57	435.43	116.98	77.113	321.33	175.12	101.02	371.36	-325.34	698.85	133.11	-259.98	590.97	136.19	-329.44	610.24	145.88	-260.84	680.02	118.32	-308.62	509.49	152.1	-298.87	499.99	278.19	-425.46	345.14	165.92	-370.62	248.79	169.91	-431.92	268.19	176.62	-364.2	324.6	158.85	-414.24	105.56	196.16	-412.47	115.64	289.89	-496.6	76.988	243.82	-490.23	49.815	275.88	-493.26	50.479	214.72	-310.18	40.643	172.37	-277.52	41.984	288.81	-220.52	49.68	238.42	-279.42	1545	284.93	-364.2	1287.7	273.75
137	0.56667	-99.043	1268.3	270.26	-210.24	1499.7	451.14	-243.24	1480.7	102.71	-197.92	1823	267.04	-103.08	990.02	401.49	-139.41	1001.7	150.73	-329.21	1026.4	335.76	-332.16	1033.8	256.07	-174.57	914.92	480.71	-273.42	925.85	108.7	-186.25	1079.9	459.18	-242.04	1084.1	120.01	-352.12	988.47	297.26	-64.75	676.56	469.74	36.261	639.29	425.05	-24.024	596.96	450.26	-5.5389	739.54	448.79	20.934	546.27	438.28	-4.6338	535.43	303.26	-42.904	319.79	436.64	28.532	244.01	398.71	-39.866	249.85	422.72	22.404	314.05	420.8	-21.567	131.86	407.41	2.2872	148.71	318.57	-80.68	93.87	347.12	-67.087	65.811	316.81	-74.362	61.287	380.65	93.929	68.948	435.66	132.49	79.264	321.39	190.24	104.49	371.2	-322.63	698.9	133.43	-257.86	590.66	136.32	-327.2	610.3	146.11	-258.26	679.72	118.52	-307.01	509.4	152.2	-297.02	499.78	278.28	-424.5	345.51	166.21	-370.03	248.93	170.05	-431.22	268.59	176.86	-363.34	324.72	158.99	-414.06	105.78	196.39	-412.17	115.82	290.09	-496.47	77.269	244.12	-490.1	50.03	276.12	-493.18	50.818	214.96	-310.17	40.655	172.44	-277.43	41.884	288.86	-220.43	49.5	238.42	-274.27	1544.3	285.29	-359.31	1287	274.25
